# Blender v2.69 (sub 0) OBJ File: ''
# www.blender.org
g Crack.001
v 6.265678 0.037113 -2.940781
v 6.265678 -0.037111 -2.940781
v 0.100197 0.037112 -2.940781
v 0.100210 -0.037112 -2.940781
v 0.100197 -0.037112 -0.114125
v 6.265678 -0.037111 -0.114125
v 0.100197 0.037112 -0.114125
v 6.265678 0.037113 -0.114125
vn 0.000000 0.000000 -1.000000
vn 0.000000 0.000000 1.000000
vn 1.000000 0.000000 0.000000
vn -0.000000 1.000000 0.000000
vn -1.000000 -0.000000 0.000000
vn -1.000000 -0.000176 -0.000005
vn 0.000000 -1.000000 0.000000
s off
f 1//1 2//1 3//1
f 3//1 2//1 4//1
f 5//2 6//2 7//2
f 7//2 6//2 8//2
f 6//3 2//3 8//3
f 2//3 1//3 8//3
f 8//4 1//4 7//4
f 7//4 1//4 3//4
f 7//5 3//5 5//5
f 5//6 3//6 4//6
f 2//7 6//7 4//7
f 4//7 6//7 5//7
g Crack
v 6.219181 0.037113 0.134628
v 6.219181 -0.037111 0.134628
v 0.045992 0.037112 0.134628
v 0.045992 -0.037112 0.134628
v 0.045992 -0.037112 2.507613
v 6.219181 -0.037111 2.507613
v 0.045992 0.037112 2.507613
v 6.219181 0.037113 2.507613
vn 0.000000 0.000000 -1.000000
vn 0.000000 0.000000 1.000000
vn 1.000000 0.000000 0.000000
vn -0.000000 1.000000 0.000000
vn -1.000000 -0.000000 0.000000
vn 0.000000 -1.000000 0.000000
s off
f 9//8 10//8 11//8
f 11//8 10//8 12//8
f 13//9 14//9 15//9
f 15//9 14//9 16//9
f 14//10 10//10 16//10
f 10//10 9//10 16//10
f 16//11 9//11 15//11
f 15//11 9//11 11//11
f 15//12 11//12 13//12
f 13//12 11//12 12//12
f 10//13 14//13 12//13
f 12//13 14//13 13//13
